<?xml version="1.0" encoding="UTF-8" standalone="no"?>
<svg
   xmlns:dc="http://purl.org/dc/elements/1.1/"
   xmlns:cc="http://creativecommons.org/ns#"
   xmlns:rdf="http://www.w3.org/1999/02/22-rdf-syntax-ns#"
   xmlns:svg="http://www.w3.org/2000/svg"
   xmlns="http://www.w3.org/2000/svg"
   xmlns:sodipodi="http://sodipodi.sourceforge.net/DTD/sodipodi-0.dtd"
   xmlns:inkscape="http://www.inkscape.org/namespaces/inkscape"
   version="1.1"
   id="svg20"
   width="500"
   height="500"
   viewBox="0 0 500 500"
   sodipodi:docname="tunefull-logo.svg"
   inkscape:version="1.0.1 (3bc2e813f5, 2020-09-07)">
  <metadata
     id="metadata26">
    <rdf:RDF>
      <cc:Work
         rdf:about="">
        <dc:format>image/svg+xml</dc:format>
        <dc:type
           rdf:resource="http://purl.org/dc/dcmitype/StillImage" />
        <dc:title></dc:title>
      </cc:Work>
    </rdf:RDF>
  </metadata>
  <defs
     id="defs24" />
  <sodipodi:namedview
     pagecolor="#ffffff"
     bordercolor="#666666"
     borderopacity="1"
     objecttolerance="10"
     gridtolerance="10"
     guidetolerance="10"
     inkscape:pageopacity="0"
     inkscape:pageshadow="2"
     inkscape:window-width="1366"
     inkscape:window-height="705"
     id="namedview22"
     showgrid="false"
     inkscape:zoom="1.5216938"
     inkscape:cx="220.58614"
     inkscape:cy="282.47466"
     inkscape:window-x="-8"
     inkscape:window-y="303"
     inkscape:window-maximized="1"
     inkscape:current-layer="g28" />
  <g
     inkscape:groupmode="layer"
     inkscape:label="Image"
     id="g28">
    <path
       style="fill:#ffbd59;fill-opacity:1;stroke:none;stroke-width:1px;stroke-linecap:butt;stroke-linejoin:miter;stroke-opacity:1"
       d="m 141.28992,88.388348 19.05772,-13.636121 c 27.48179,46.192683 59.94047,14.681139 62.26614,57.830293 -9.28431,-24.42228 -34.45626,-13.25908 -52.573,-22.01494 0,0 0,0 26.94366,114.83914 4.72475,26.1444 -36.66477,41.96013 -56.45217,28.38559 -19.7874,-13.57454 -13.79051,-49.80143 29.01564,-49.90766 C 141.28992,88.388348 141.28992,88.388348 141.28992,88.388348 Z"
       id="path32"
       sodipodi:nodetypes="cccccscc" />
    <path
       style="fill:#38b6ff;fill-opacity:1;stroke:none;stroke-width:0.999999px;stroke-linecap:butt;stroke-linejoin:miter;stroke-opacity:1"
       d="m 385.69078,217.79274 23.12274,3.805 c -13.16608,52.11213 32.06849,52.72584 3.24178,84.91708 10.67467,-23.84739 -15.03044,-33.72124 -21.67309,-52.7148 0,0 0,0 -62.02732,100.33243 -15.11892,21.84652 -55.59152,3.8132 -60.01387,-19.77179 -4.42239,-23.58497 25.40789,-44.99776 55.78886,-14.84198 61.5609,-101.72594 61.5609,-101.72594 61.5609,-101.72594 z"
       id="path32-3"
       sodipodi:nodetypes="cccccscc" />
    <path
       style="fill:#7ed957;fill-opacity:1;stroke:none;stroke-width:0.999999px;stroke-linecap:butt;stroke-linejoin:miter;stroke-opacity:1"
       d="m 297.20153,101.3167 22.76446,-5.560549 c 8.30837,53.103509 50.16553,35.941829 36.25936,76.854889 0.47568,-26.12318 -27.0428,-25.13413 -40.59728,-40.00549 l -17.74843,116.61468 c -5.3486,26.02395 -49.65092,25.2932 -62.96197,5.32756 -13.31102,-19.96561 5.74218,-51.35551 45.51061,-35.51718 l 4.68059,-32.84826 z"
       id="path32-2"
       sodipodi:nodetypes="cccccsccc" />
    <g
       aria-label="TUNE
FULL"
       id="text117"
       style="font-style:normal;font-variant:normal;font-weight:normal;font-stretch:normal;font-size:57.3333px;line-height:0.9;font-family:'Noto Serif';-inkscape-font-specification:'Noto Serif';text-align:center;text-anchor:middle;fill:#7ed957;fill-opacity:1;stroke:none">
      <path
         d="m 115.65863,288.65778 q 0.27995,3.49935 0.97982,9.18229 v 0.22395 q 0,0.50391 -0.97982,0.50391 -0.33594,0 -0.47591,-0.33594 -1.39974,-4.08723 -3.66732,-5.9069 -1.98763,-1.5957 -6.80273,-1.5957 -2.07161,0 -2.85546,0.27995 -0.64388,0.22396 -1.06381,0.86784 -0.5039,0.81185 -0.64388,2.09961 -0.13997,1.34375 -0.13997,4.89908 v 20.96809 q 0,3.89127 0.13997,5.01106 0.13998,0.95183 0.5879,1.59571 0.47591,0.64388 1.48372,0.92382 0.95182,0.25196 3.27539,0.44792 0.5319,0.056 0.5319,0.72787 0,0.81184 -0.5319,0.81184 -4.61914,-0.22395 -7.782551,-0.22395 -3.247394,0 -7.418615,0.22395 -0.503906,0 -0.503906,-0.81184 0,-0.67188 0.503906,-0.72787 3.63932,-0.30794 4.311195,-1.37174 0.755859,-1.17578 0.755859,-6.9987 v -21.91991 q 0,-4.73111 -0.699869,-5.76692 -0.671875,-1.03581 -3.891274,-1.03581 -4.535154,0 -6.606767,1.5957 -2.267577,1.81967 -3.779295,5.9069 -0.139974,0.33594 -0.391927,0.33594 -0.979817,0 -0.979817,-0.50391 v -0.16796 q 0.727864,-5.51498 1.035806,-9.23828 7.670569,0.27995 17.720694,0.27995 10.218091,0 17.888661,-0.27995 z"
         style="font-style:normal;font-variant:normal;font-weight:normal;font-stretch:normal;font-size:57.3333px;font-family:'Yu Mincho';-inkscape-font-specification:'Yu Mincho';text-align:center;text-anchor:middle"
         id="path967" />
      <path
         d="m 149.25236,288.65778 q 4.67513,0.22396 6.55078,0.22396 2.26758,0 6.46679,-0.22396 0.50391,0 0.50391,0.92383 0,0.61588 -0.50391,0.67187 -3.30338,0.39193 -4.00325,1.45573 -0.95182,1.42773 -1.03581,7.16666 l -0.11198,6.9707 q -0.11198,7.22265 -0.11198,10.44205 0,6.71875 -4.31119,10.38607 -4.33919,3.66731 -10.49804,3.66731 -7.81055,0 -12.59765,-4.53515 -3.33138,-3.16341 -3.33138,-8.65039 l 0.11198,-11.00195 v -8.42642 q 0,-5.09505 -0.5599,-6.10286 -0.61588,-1.03581 -4.61913,-1.37175 -0.50391,-0.056 -0.50391,-0.67187 0,-0.92383 0.50391,-0.92383 4.56314,0.22396 7.4746,0.22396 3.07943,0 7.41862,-0.22396 0.5039,0 0.5039,0.92383 0,0.61588 -0.5039,0.67187 -2.40755,0.22396 -3.2474,0.5319 -0.67187,0.27995 -1.00781,0.83985 -0.69987,1.20377 -0.69987,7.25064 v 7.39062 l -0.056,7.95052 q 0,4.39518 0.75586,6.60677 0.58789,1.70768 1.98763,3.02343 3.61133,3.33138 8.79036,3.33138 6.07487,0 9.18229,-3.27539 2.79947,-2.88346 2.79947,-8.87434 0,-3.55534 0,-6.83073 l -0.056,-9.32226 q -0.084,-5.82291 -0.92382,-7.25064 -0.67188,-1.0918 -4.36719,-1.37175 -0.44792,-0.056 -0.44792,-0.67187 0,-0.92383 0.44792,-0.92383 z"
         style="font-style:normal;font-variant:normal;font-weight:normal;font-stretch:normal;font-size:57.3333px;font-family:'Yu Mincho';-inkscape-font-specification:'Yu Mincho';text-align:center;text-anchor:middle"
         id="path969" />
      <path
         d="m 175.51146,294.67666 h -0.64388 l 0.22396,24.41144 q 0.084,6.13086 0.92383,7.47461 0.72786,1.14778 4.42317,1.42773 0.44792,0.084 0.44792,0.67187 0,0.69987 -0.44792,0.69987 -0.81185,-0.028 -2.29557,-0.056 -2.99544,-0.11198 -4.2552,-0.11198 -0.97982,0 -6.55078,0.16797 -0.5599,0 -0.5599,-0.69987 0,-0.61588 0.5599,-0.67187 3.33138,-0.33594 3.97526,-1.48372 0.89583,-1.6237 0.97981,-7.41862 l 0.33594,-21.19204 q 0.084,-4.64714 -0.86784,-5.9069 -0.97981,-1.28776 -4.70312,-1.67969 -0.5599,-0.056 -0.5599,-0.67187 0,-0.97982 0.5599,-0.97982 2.96745,0.16797 5.29101,0.16797 2.74349,0 5.20703,-0.056 1.56771,2.99544 4.36719,6.9427 l 13.29751,18.92447 q 3.63933,5.23502 5.45899,7.95052 v -7.05469 l -0.056,-16.65689 q 0,-5.82291 -0.97982,-7.25064 -0.69987,-1.06381 -4.36719,-1.37175 -0.5039,-0.056 -0.5039,-0.67187 0,-0.92383 0.5039,-0.92383 4.67513,0.22396 6.41081,0.22396 2.35156,0 6.4388,-0.22396 0.55989,0 0.55989,0.92383 0,0.5319 -0.55989,0.67187 -3.13542,0.27995 -3.89128,1.37175 -0.89583,1.31575 -0.97981,7.25064 l -0.36394,20.21223 q 0,1.95964 0.028,2.88346 0,2.57552 0.11198,6.94271 -2.40755,1.48372 -2.54753,1.48372 -0.19596,0 -0.39192,-0.27995 -2.6875,-4.42317 -6.52279,-9.88215 z"
         style="font-style:normal;font-variant:normal;font-weight:normal;font-stretch:normal;font-size:57.3333px;font-family:'Yu Mincho';-inkscape-font-specification:'Yu Mincho';text-align:center;text-anchor:middle"
         id="path971" />
      <path
         d="m 242.58694,329.36218 q -8.0345,-0.30794 -14.19335,-0.30794 -6.88672,0 -14.75325,0.30794 -0.44792,0 -0.44792,-0.75586 0,-0.64388 0.44792,-0.72786 2.26758,-0.22396 3.10742,-0.5319 0.67187,-0.27995 1.0638,-0.83984 0.69987,-1.03581 0.69987,-7.5306 v -20.10025 q 0,-4.47916 -0.13997,-5.73893 -0.11198,-0.95182 -0.50391,-1.5677 -0.69987,-1.03581 -4.53515,-1.31576 -0.50391,-0.056 -0.50391,-0.67187 0,-0.92383 0.50391,-0.92383 5.76692,0.27995 14.30533,0.27995 7.89452,0 13.9134,-0.27995 0.72787,7.22265 0.97982,9.07031 v 0.16797 q 0,0.5039 -0.92383,0.5039 -0.30794,0 -0.44792,-0.33594 -1.25976,-3.77929 -3.66731,-5.68294 -2.09961,-1.67968 -8.65039,-1.67968 -4.08723,0 -5.01106,1.37174 -0.61589,0.92383 -0.61589,4.78711 v 10.13411 q 0.97982,0.056 3.66732,0.056 6.15885,0 7.55859,-1.14779 1.48372,-1.17578 1.73567,-3.66731 0.056,-0.50391 0.61589,-0.50391 0.86784,0 0.86784,0.50391 -0.11198,3.91926 -0.11198,5.62695 0,2.40755 0.11198,6.43879 0,0.50391 -0.86784,0.50391 -0.5599,0 -0.61589,-0.5599 -0.25195,-3.16341 -1.84765,-4.2552 -1.51172,-1.0918 -7.44661,-1.0918 -1.79167,0 -3.66732,0.11198 v 9.96614 q 0,5.62695 0.81185,6.83073 0.61589,0.89583 1.84766,1.23177 1.23177,0.30794 3.86328,0.30794 4.19921,0 6.55077,-0.58789 1.98763,-0.47591 3.55534,-1.5957 2.29557,-1.67969 4.2832,-5.73893 0.16797,-0.39193 0.41992,-0.39193 1.0918,0 1.0918,0.64388 l -0.056,0.27995 q -1.03581,4.50716 -2.99544,9.40624 z"
         style="font-style:normal;font-variant:normal;font-weight:normal;font-stretch:normal;font-size:57.3333px;font-family:'Yu Mincho';-inkscape-font-specification:'Yu Mincho';text-align:center;text-anchor:middle"
         id="path973" />
      <path
         d="m 98.18989,366.25699 v 9.74218 q 0,4.73112 0.11198,5.9069 0.08398,1.03581 0.447916,1.6237 0.699869,1.03581 4.759114,1.37174 0.58789,0.056 0.58789,0.72787 0,0.75586 -0.58789,0.75586 -4.507161,-0.22396 -7.72656,-0.22396 -3.16341,0 -7.222653,0.22396 -0.58789,0 -0.58789,-0.75586 0,-0.67188 0.58789,-0.72787 3.499347,-0.19596 4.171222,-1.37174 0.699869,-1.28776 0.699869,-7.5306 v -20.10025 q 0,-4.50715 -0.139973,-5.76692 -0.11198,-0.92383 -0.475912,-1.53971 -0.727864,-1.03581 -4.787106,-1.31576 -0.447917,-0.056 -0.447917,-0.67187 0,-0.92383 0.447917,-0.92383 5.822913,0.27995 14.529293,0.27995 8.0065,0 14.08137,-0.27995 0.25195,2.96745 1.09179,9.07031 v 0.16797 q 0,0.5039 -1.00781,0.5039 -0.36393,0 -0.5319,-0.44791 -1.20377,-3.7513 -3.55534,-5.57096 -1.25976,-0.97982 -3.13541,-1.34375 -1.90364,-0.33594 -5.68294,-0.33594 -4.171221,0 -4.98307,1.37174 -0.64388,1.03581 -0.64388,6.80273 v 8.28646 q 0.923828,0.084 3.72331,0.084 6.35481,0 7.72655,-1.0358 1.28776,-1.03581 1.56771,-3.80729 0.084,-0.50391 0.78386,-0.50391 0.81184,0 0.81184,0.50391 -0.11198,3.77929 -0.11198,5.62695 0,2.54752 0.11198,6.43879 0,0.5599 -0.81184,0.5599 -0.72787,0 -0.78386,-0.61588 -0.27995,-3.2474 -1.67969,-4.17123 -1.67968,-1.09179 -7.61457,-1.09179 -1.959639,0 -3.72331,0.084 z"
         style="font-style:normal;font-variant:normal;font-weight:normal;font-stretch:normal;font-size:57.3333px;font-family:'Yu Mincho';-inkscape-font-specification:'Yu Mincho';text-align:center;text-anchor:middle"
         id="path975" />
      <path
         d="m 150.48413,345.68083 q 4.67513,0.22396 6.55078,0.22396 2.26758,0 6.46679,-0.22396 0.50391,0 0.50391,0.92383 0,0.61588 -0.50391,0.67187 -3.30338,0.39193 -4.00325,1.45573 -0.95182,1.42774 -1.03581,7.16666 l -0.11198,6.9707 q -0.11198,7.22266 -0.11198,10.44206 0,6.71874 -4.31119,10.38606 -4.33919,3.66731 -10.49804,3.66731 -7.81055,0 -12.59765,-4.53515 -3.33138,-3.16341 -3.33138,-8.65039 l 0.11198,-11.00194 v -8.42643 q 0,-5.09505 -0.5599,-6.10286 -0.61588,-1.03581 -4.61913,-1.37175 -0.50391,-0.056 -0.50391,-0.67187 0,-0.92383 0.50391,-0.92383 4.56314,0.22396 7.4746,0.22396 3.07943,0 7.41862,-0.22396 0.5039,0 0.5039,0.92383 0,0.61588 -0.5039,0.67187 -2.40755,0.22396 -3.2474,0.5319 -0.67187,0.27995 -1.00781,0.83985 -0.69987,1.20377 -0.69987,7.25064 v 7.39063 l -0.056,7.95051 q 0,4.39518 0.75586,6.60677 0.58789,1.70768 1.98763,3.02343 3.61133,3.33138 8.79036,3.33138 6.07487,0 9.18229,-3.27539 2.79947,-2.88346 2.79947,-8.87434 0,-3.55534 0,-6.83072 l -0.056,-9.32227 q -0.084,-5.82291 -0.92382,-7.25064 -0.67188,-1.0918 -4.36719,-1.37175 -0.44792,-0.056 -0.44792,-0.67187 0,-0.92383 0.44792,-0.92383 z"
         style="font-style:normal;font-variant:normal;font-weight:normal;font-stretch:normal;font-size:57.3333px;font-family:'Yu Mincho';-inkscape-font-specification:'Yu Mincho';text-align:center;text-anchor:middle"
         id="path977" />
      <path
         d="m 197.65533,386.38524 q -6.13085,-0.30795 -14.27733,-0.30795 -6.80273,0 -14.69726,0.30795 -0.44792,0 -0.44792,-0.75586 0,-0.64388 0.44792,-0.72787 3.66732,-0.33593 4.36719,-1.37174 0.69987,-1.00781 0.69987,-7.5306 v -21.08006 q 0,-5.31901 -0.64388,-6.27083 -0.69987,-1.0918 -4.59115,-1.37175 -0.44791,-0.056 -0.44791,-0.67187 0,-0.92383 0.44791,-0.92383 5.79492,0.27995 7.5306,0.27995 1.84765,0 7.33463,-0.27995 0.58789,0 0.58789,0.92383 0,0.61588 -0.58789,0.67187 -3.63932,0.36394 -4.22721,1.37175 -0.69987,1.28776 -0.69987,7.25064 v 20.10025 q 0,5.54297 0.81185,6.83073 0.55989,0.89583 1.76367,1.23177 1.20377,0.30794 3.7233,0.30794 7.13867,0 10.16211,-2.18359 2.07161,-1.45573 4.22721,-5.73893 0.25195,-0.39193 0.47591,-0.39193 0.36393,0 0.75586,0.22396 0.33593,0.22396 0.33593,0.41992 l -0.056,0.27995 q -1.31576,5.12305 -2.99545,9.40625 z"
         style="font-style:normal;font-variant:normal;font-weight:normal;font-stretch:normal;font-size:57.3333px;font-family:'Yu Mincho';-inkscape-font-specification:'Yu Mincho';text-align:center;text-anchor:middle"
         id="path979" />
      <path
         d="m 234.30049,386.38524 q -6.13086,-0.30795 -14.27733,-0.30795 -6.80274,0 -14.69726,0.30795 -0.44792,0 -0.44792,-0.75586 0,-0.64388 0.44792,-0.72787 3.66731,-0.33593 4.36718,-1.37174 0.69987,-1.00781 0.69987,-7.5306 v -21.08006 q 0,-5.31901 -0.64388,-6.27083 -0.69987,-1.0918 -4.59114,-1.37175 -0.44792,-0.056 -0.44792,-0.67187 0,-0.92383 0.44792,-0.92383 5.79492,0.27995 7.53059,0.27995 1.84766,0 7.33464,-0.27995 0.58789,0 0.58789,0.92383 0,0.61588 -0.58789,0.67187 -3.63933,0.36394 -4.22722,1.37175 -0.69987,1.28776 -0.69987,7.25064 v 20.10025 q 0,5.54297 0.81185,6.83073 0.5599,0.89583 1.76367,1.23177 1.20378,0.30794 3.72331,0.30794 7.13867,0 10.1621,-2.18359 2.07162,-1.45573 4.22721,-5.73893 0.25196,-0.39193 0.47592,-0.39193 0.36393,0 0.75585,0.22396 0.33594,0.22396 0.33594,0.41992 l -0.056,0.27995 q -1.31575,5.12305 -2.99544,9.40625 z"
         style="font-style:normal;font-variant:normal;font-weight:normal;font-stretch:normal;font-size:57.3333px;font-family:'Yu Mincho';-inkscape-font-specification:'Yu Mincho';text-align:center;text-anchor:middle"
         id="path981" />
    </g>
  </g>
</svg>
